<?xml version="1.0" encoding="UTF-8"?><svg id="_レイヤー_1" xmlns="http://www.w3.org/2000/svg" xmlns:xlink="http://www.w3.org/1999/xlink" viewBox="0 0 1024 1024"><defs><style>.cls-1{fill:none;stroke:#d8b419;stroke-width:5px;}.cls-2{fill:#2d2801;}.cls-3{fill:#fff;}.cls-4{fill:url(#_名称未設定グラデーション_14);}.cls-5{fill:url(#_名称未設定グラデーション_18);}</style><linearGradient id="_名称未設定グラデーション_18" x1="309.4" y1="-44.63" x2="714.6" y2="1068.63" gradientUnits="userSpaceOnUse"><stop offset=".06" stop-color="#f4ce0f"/><stop offset="1" stop-color="#edaa14"/></linearGradient><linearGradient id="_名称未設定グラデーション_14" x1="629.49" y1="-40.73" x2="394.51" y2="1064.73" gradientUnits="userSpaceOnUse"><stop offset="0" stop-color="#ffef78"/><stop offset=".46" stop-color="#f4ce0f"/><stop offset="1" stop-color="#dda414"/></linearGradient></defs><rect class="cls-5" x="0" y="0" width="1024" height="1024" rx="227" ry="227"/><path class="cls-4" d="M797,6c29.84,0,58.78,5.84,86.02,17.36,26.32,11.13,49.95,27.07,70.25,47.36,20.3,20.3,36.23,43.93,47.36,70.25,11.52,27.24,17.36,56.18,17.36,86.02v570c0,29.84-5.84,58.78-17.36,86.02-11.13,26.32-27.07,49.95-47.36,70.25-20.3,20.3-43.93,36.23-70.25,47.36-27.24,11.52-56.18,17.36-86.02,17.36H227c-29.84,0-58.78-5.84-86.02-17.36-26.32-11.13-49.95-27.07-70.25-47.36-20.3-20.3-36.23-43.93-47.36-70.25-11.52-27.24-17.36-56.18-17.36-86.02V227c0-29.84,5.84-58.78,17.36-86.02,11.13-26.32,27.07-49.95,47.36-70.25,20.3-20.3,43.93-36.23,70.25-47.36,27.24-11.52,56.18-17.36,86.02-17.36h570M797,0H227C101.63,0,0,101.63,0,227v570c0,125.37,101.63,227,227,227h570c125.37,0,227-101.63,227-227V227c0-125.37-101.63-227-227-227h0Z"/><circle class="cls-1" cx="372.46" cy="370.31" r="131.62"/><circle class="cls-3" cx="372.46" cy="370.31" r="131.62"/><circle class="cls-1" cx="732.51" cy="370.31" r="131.98"/><circle class="cls-3" cx="732.51" cy="370.31" r="131.98"/><path class="cls-1" d="M690.17,695.14c-.47,74.51-61.13,135.49-135.64,136.33-20.55.23-40.07-4.05-57.64-11.92-20.02-8.97-42.78-8.95-62.8.01-17.52,7.85-36.99,12.12-57.48,11.91-74.51-.77-135.22-61.68-135.77-136.19-.56-76.25,61.08-138.25,137.22-138.25,20.06,0,39.11,4.3,56.29,12.04,19.83,8.93,42.47,8.93,62.3,0,17.18-7.73,36.23-12.04,56.29-12.04,76.09,0,137.71,61.92,137.23,138.11Z"/><path class="cls-3" d="M690.17,695.14c-.47,74.51-61.13,135.49-135.64,136.33-20.55.23-40.07-4.05-57.64-11.92-20.02-8.97-42.78-8.95-62.8.01-17.52,7.85-36.99,12.12-57.48,11.91-74.51-.77-135.22-61.68-135.77-136.19-.56-76.25,61.08-138.25,137.22-138.25,20.06,0,39.11,4.3,56.29,12.04,19.83,8.93,42.47,8.93,62.3,0,17.18-7.73,36.23-12.04,56.29-12.04,76.09,0,137.71,61.92,137.23,138.11Z"/><circle class="cls-2" cx="406.71" cy="370.31" r="88.37"/><circle class="cls-2" cx="766.88" cy="370.31" r="88.6"/></svg>